<svg xmlns="http://www.w3.org/2000/svg" width="694.704" height="455.933">
  <path fill="#fff" fill-rule="evenodd" clip-rule="evenodd" d="M0 181.579c17.573-49.663 78.635-49.423 111.087-82.655 7.474-7.653 10.743-4.838 19.417-8.767 10.148-4.596 18.396-13.949 28.591-19.194 23.195-11.935 46.564-24.066 72.102-30.186 19.175-4.596 40.053-3.593 50.263 15.938 13.713 26.232-1.525 50.544-12.918 74.137-26.241 54.341-57.267 104.801-78.848 161.516 17.245-11.262 28.198-38.286 44.738-53.193 19.875-17.914 36.616-42.507 53.486-63.439 15.21-18.873 29.813-39.815 45.606-57.188 5.577-6.135 16.386-18.756 25.988-15.043 2.55-9.976 5.247-19.87 14.847-25.386 31.239-17.938 78.93-83.414 112.358-31.958 23.425 36.059-18.495 95.328-26.389 132.88 7.05 1.222 22.511-23.413 27.813-28.983 13.903-14.605 25.787-33.522 38.648-49.325C555.16 65.868 596.262 20.77 639.078 4.045c39.96-15.609 58.447 14.301 55.806 50.105-3.228 43.752-24.335 81.728-45.332 119.373-11.873 21.287-24.589 41.817-35.569 63.627-5.131 10.193-23.768 35.842-23.683 46.952.16 20.985-13.161 39.873-17.388 60.04-5.028 23.992 12.431 43.293 8.561 66.221-3.267 19.354-25.359 18.355-38.069 8.803-5.526-4.153-9.035-9.504-9.691-16.374-4.427 1.219-8.804.385-12.153-2.833-14.88-14.294-12.053-49.149-9.7-67.781 9.395-74.384 63.74-121.86 80.995-193.548 2.896-12.032 16.71-24.626 24.825-34.861 8.272-10.432 8.494-20.815 14.373-32.806 1.949-3.975 11.125-22.994-1.314-15.633-18.43 10.904-40.201 29.423-54.3 45.325-7.865 8.87-32.901 23.485-34.632 33.674-1.042 6.135-21.804 27.717-27.946 29.64-9.622 3.012-13.894 20.862-21.187 28.919-18.689 20.647-35.746 42.733-51.438 65.73-16.267 23.837-36.707 68.437-68.289 73.538-46.851 7.567-10.857-83.22-4.251-98.159 14.773-33.408 33.806-65.818 49.982-98.686 3.392-6.891 22.578-40.59.725-33.355-30.177 9.99-59.319 46.73-83.33 66.789-25.036 20.915-50.943 43.426-68.671 70.626-7.192 11.035-17.1 20.461-26.066 30.029-9.852 10.513-13.159 24.647-22.458 35.536-7.039 8.242-18.176 12.062-19.257 24.099-1.244 13.856-13.739 23.234-22.062 33.035-19.507 22.969-29.371 53.096-49.327 76.086-21.83 25.149-60.209 20.812-55.452-19.293 1.707-14.387 7.938-27.64 11.769-41.479 3.877-14.005 17.333-22.485 21.094-36.528 7.209-26.918 21.834-58.93 35.066-83.569 28.719-53.478 63.719-110.322 80.346-169.141 8.288-29.315-29.15-6.818-39.896-.869-27.631 15.298-55.637 23.552-79.238 45.272-10.583 9.74-22.293 17.893-33.794 26.487-15.143 11.315-18.779 26.33-31.705 37.862-10.352 9.235-25.856 7.318-33.366-4.651-5.795-9.236.777-12.439.777-21.415C3.83 174.423 0 178.026 0 181.579c7.5-21.196 0 .338 0 0z"/>
</svg>
