<svg xmlns="http://www.w3.org/2000/svg" width="587.388" height="162.644">
  <path fill="#fff" fill-rule="evenodd" clip-rule="evenodd" d="M373.455 106.605c-1.52.041-3.037.039-4.559.039H1.35c-.23 0-1.322.097-1.322-.133v-1.375-6.128-12.885c0-.264-.135-.675.168-.683.365-.01.73-.029 1.096-.029h370.977c.352 0 1.186-.197 1.186.21V106.605zm-259.391-9.957c.195 1.603.021 3.371.008 5.007-.004.558.158.63.559 1.037.16.161.934.176 1.139.088.311-.132.645-.648.887-.89.137-.138.008-.954.006-1.142-.004-.525-.008-1.051-.012-1.576-.002-.346.447-.628.674-.867.127-.132.865-.018 1.041-.018.484.001.971.002 1.455.004.623.002 1.158.771 1.537 1.149.832.832 1.662 1.663 2.494 2.495.42.418.867.839 1.504.854.545.012 1.088.025 1.633.037.219.004.859.076.988-.101.471-.646-.934-.844-1.305-1.21-.58-.573-1.143-1.31-1.836-1.744-.426-.268-.854-.534-1.279-.801-.127-.079-.221-.213-.322-.322-.055-.058.25-.388.342-.39.475-.007.746-.069 1.193-.236.328-.122.705-.369 1.051-.378.885-.023 1.225-.729 1.557-1.479.379-.857.229-1.814.229-2.745-.002-.691-.557-1.501-1.033-1.968-.373-.365-1.256-.903-1.793-.902-1.939.001-3.879.001-5.818.002-1.066 0-2.133 0-3.201.001-.828 0-.842.022-1.467.644-.475.471-.229 1.521-.229 2.153v3.156c-.002.049-.002.096-.002.142zm186.715.018c.182 1.603.012 3.352.008 4.983 0 .592.1.657.51 1.093.156.168 1.096.023 1.332.023.895-.001.75-1.054.746-1.678-.004-.56-.008-1.121-.012-1.682-.002-.46.203-.55.541-.889.527-.53 1.822-.237 2.545-.239.588-.001 1.09.621 1.459.991l2.514 2.52c.551.549.857.963 1.666.977.561.009 1.121.019 1.684.028.186.003.184-.188.25-.351.119-.296.049-.208-.135-.441-.59-.755-1.424-1.397-2.109-2.069-.217-.214-.574-.318-.848-.461-.555-.29-.674-.45-.994-.994.773-.198 1.506-.423 2.203-.808.621-.342 1.553-.628 1.553-1.491-.002-1.055-.002-2.11-.002-3.164-.002-.756.09-1.434-.73-1.847-.514-.26-1.092-.615-1.68-.615-.865.001-1.732.001-2.598.001l-6.621.003c-.486 0-.484.06-.854.443-.482.499-.428.596-.428 1.288v4.379zm-214.392.013c.113.784.012 1.707.012 2.517 0 .821.002 1.644 0 2.465-.002.595.096.652.514 1.083.168.173 1.111.025 1.359.025.848.001.715-1.137.709-1.689-.008-.56-.014-1.121-.02-1.681-.006-.45.18-.541.5-.882.498-.531 1.836-.226 2.533-.223.631.001 1 .478 1.406.884.834.834 1.668 1.668 2.5 2.503.391.39.908 1.092 1.537 1.103.162.002 2.486.103 2.334-.265-.35-.836-1.209-1.432-1.85-2.06-.57-.559-1.131-.894-1.818-1.303-.529-.315-.467-.275-.234-.854-.023.059 1.178-.278 1.24-.302.51-.192 1.646-.623 1.844-1.104.367-.892.318-1.574.318-2.544-.002-.404.002-.809.004-1.212 0-.228.141-1.057-.014-1.233-.223-.254-.438-.619-.744-.769-.406-.199-.814-.374-1.234-.545-.365-.148-.916-.041-1.301-.041-2.205 0-4.41.001-6.617.002-.674 0-1.352.001-2.025.001-.291 0-.953.683-.953.975v5.149zm154.541-.009c-.203-1.65-.006-3.53 0-5.205 0-.311-.393-.556-.596-.769-.262-.276-.799-.141-1.166-.141-.201 0-.676.69-.824.846-.123.131-.008.823-.008.995.006.577.012 1.153.018 1.73.004.306.096.622-.121.847-.139.143-.535.721-.734.721h-7.218c-.256 0-.375-.224-.555-.399-.314-.309-.4-.369-.398-.789.004-1.025.01-2.05.016-3.074 0-.265-.518-.622-.693-.807-.115-.122-.971-.167-1.078-.053-.52.546-.834.698-.832 1.412v9.449c0 .503-.057 1.124.549 1.338.529.188 2.041.112 2.049-.697.008-.923-.008-1.846-.012-2.77-.002-.157-.104-.769.012-.89.303-.316.553-.774 1.004-.777.691-.003 1.383 0 2.072 0h3.656c.338 0 1.547-.163 1.811.094.357.346.482.406.479.901-.004.431-.008.861-.012 1.292l-.018 1.668c-.004.456.094.491.428.841.314.332.328.345.783.345.395 0 .541.063.805-.212.535-.557.586-.587.586-1.324-.003-1.523-.003-3.047-.003-4.572zm-63.744-6.116c-.918-.001-1.834-.001-2.752-.002-.457-.001-.914-.001-1.371-.002-.352 0-.68.213-1 .347-.496.207-1.344 1.198-1.344 1.789v2.06c.002 1.96.002 3.922.004 5.882 0 .185.533.626.65.762.285.327.514.678.904.872.594.294 1.006.521 1.658.521h6.66c.684 0 1.072.014 1.703-.275.334-.154.666-.3.928-.56.406-.404.396-.437.396-1 0-.569.002-1.139.002-1.708 0-.474-.197-.544-.559-.878-.225-.208-.859-.076-1.156-.077-.271 0-.785.466-.881.715-.098.254.189.879.004 1.075-.152.162-.562.781-.779.781h-2.711c-1.078 0-2.154 0-3.232-.001-.447 0-1.004-.459-1.004-.924v-6.279c0-1.697 2.562-1.154 3.629-1.155h3.111c.299 0 .334.107.562.333.453.45.439.491.424 1.131-.004.159-.072.453.014.594.234.384.191.404.604.233.242-.101.486-.198.729-.297.139-.055.514-.03.582-.098.494-.485.668-.557.668-1.229 0-.596.148-1.132-.26-1.578-.594-.649-1.594-1.037-2.475-1.037-1.236.003-2.472.004-3.708.005zm27.709 0h-4.125c-.301 0-.482.273-.705.464-.312.27-.73.533-.99.855-.268.333-.436.834-.611 1.221-.234.519-.049 1.437-.049 1.992v3.672c0 .754-.035 1.264.25 1.953.555 1.346 1.746 2.07 3.172 2.07h6.697c.641 0 .979-.059 1.578-.357.855-.428 1.24-.926 1.65-1.784.211-.438.191-.731.193-1.223.002-.605-.102-.635-.555-1.057-.232-.215-.906-.075-1.211-.075-.227 0-.826.455-.822.676.006.267.145.898-.043 1.096-.148.159-.578.798-.793.798H201.794c-.115 0-.764-.69-.811-.812-.066-.167.002-.5.002-.675.004-.576.006-1.152.008-1.728.006-1.046.01-2.091.014-3.137.002-.261-.008-.522-.014-.784-.014-.567.184-.663.58-1.085.301-.318 1.336-.143 1.738-.143h3.629c.24 0 1.67-.183 1.877.03.146.148.49.379.559.571.07.192-.125.62.018.769.096.1.4.538.531.537.348-.001.695-.003 1.045-.005.238-.001.43.035.633-.087.338-.206.244-.275.195-.67-.086-.716-.148-1.133-.49-1.758-.42-.762-1.736-1.33-2.57-1.329-1.281.002-2.562.003-3.845.005zm75.675-.001c-1.768 0-3.535.003-5.303.004-.418 0-.883.699-.883 1.097.002.827.002 1.654.002 2.481.004 2.241.006 4.481.008 6.721 0 .44-.146 1.169.158 1.467.379.371.434.459.963.459h9.778c.184 0 .217.023.342-.109.219-.229.969-.771 1.021-1.075.033-.184-.518-.729-.678-.731-.254-.003-.508-.005-.762-.005-.965 0-1.932-.001-2.898-.001-1.17 0-2.342-.001-3.512-.001h-.904c-.268 0-.543-.446-.719-.622-.463-.464-.217-1.505-.217-2.132 0-.507.414-1.101.961-1.102.785-.001 1.572-.001 2.359-.004.365-.001.73-.004 1.096-.006.262-.001.588-.449.777-.621-.209-.198-.527-.666-.824-.668-.35-.002-.701-.005-1.051-.006-.566 0-1.135-.002-1.699-.003-.273 0-.801.113-1.016-.079-.338-.299-.598-.397-.598-.841v-1.624c0-.217.504-.646.719-.648.244-.004.488-.008.732-.008h7.082c.541 0 .639-.025 1.027-.392.309-.292.061-.595-.162-.825-.18-.186-.514-.721-.791-.721-1.668-.004-3.338-.004-5.008-.005zm-138.166 5.741c0 .854.002 1.71.004 2.565 0 .743-.174 1.726.014 2.451.141.553.127.622.615.884.402.215.812.521 1.271.584.543.074 1.137.003 1.684.003 2.244 0 4.488.001 6.732.002.615 0 1.045-.188 1.604-.473.799-.407 1.127-1.062 1.449-1.862.234-.585.174-1.109.172-1.743l-.012-3.591c-.002-.945-.006-1.891-.01-2.836 0-.203.006-.405.012-.607.016-.527-.301-.707-.66-1.09-.141-.149-.971-.02-1.186-.02-.273 0-.744.56-.742.823.006.596.004 1.191.006 1.788.004 2.194.01 4.388.014 6.583.004 1.62-2.5 1.102-3.486 1.103h-4.141c-.078 0-.773-.71-.771-.791.008-1.883.016-3.765.023-5.648.002-.905.006-1.811.01-2.715.004-.597-.299-1.139-.961-1.142-.145-.001-.701-.092-.801.013-.236.243-.471.487-.707.729-.266.275-.133.811-.133 1.174v3.816zm-109.463.36c.227.678.025 1.845.025 2.591 0 .809.004 1.617-.014 2.425-.01.554.156.621.559 1.023.229.228.932.084 1.246.084.184 0 .719-.542.785-.713.145-.368-.004-1.079-.006-1.473-.002-.308-.004-.616-.006-.923 0-.239-.154-1.184.012-1.355.326-.335.5-.67.975-.675.217-.001.432-.001.65-.001h6.352c.676 0 1.316-.4 1.934-.65.561-.227.387-1.402.387-1.845.002-1.056.004-2.111.006-3.167.002-.663-1.26-1.071-1.746-1.279-.5-.215-.998-.146-1.543-.145-1.139 0-2.277 0-3.416.001-1.795.001-3.592.002-5.389.003-.117 0-.811.736-.811.862v5.237zm39.012 6.126c.205.068.863.107 1.117.021.629-.214.145-.69-.139-.952-.549-.51-.891-1.337-1.17-2.03-.156-.384-.312-.702-.527-1.054-.16-.261-.338-.865-.535-1.059-.287-.282-.611-.532-.799-.891-.197-.377-.365-.776-.57-1.147-.428-.768-.762-1.577-1.119-2.379-.127-.283-.529-.46-.711-.709-.254-.348-.426-.788-.57-1.191-.08-.223-.854-.44-1.061-.538-.459-.215-.654-.304-1.154-.294-.326.006-.662.288-.848.562-.117.173-.172.433-.25.627-.074.192-.357.377-.502.521-.547.542-.838 1.503-1.156 2.189-.303.659-.588 1.351-.98 1.968-.236.372-.346.702-.541 1.087-.172.346-.6.509-.764.875-.322.724-.748 1.38-1.084 2.086-.117.247-1.168 2.052-.967 2.153.43.214.738.171 1.225.162.613-.012.672-.12 1.121-.56.217-.214.324-.633.467-.911.238-.467.566-.695.973-1.032.172-.141.525-.062.734-.062.623 0 1.246 0 1.867-.001 1.592-.001 3.184 0 4.775.001.219 0 .639.502.809.643.238.197.363.62.504.899.211.422.424.621.781.94.219.197.787.075 1.074.076zm184.401-6.132c.191 1.574.021 3.314.008 4.919-.004.619.119.677.561 1.125.164.166.988.179 1.201.088.193-.082.758-.642.836-.836.051-.124 0-.375 0-.505-.002-2.243-.006-4.484-.008-6.727 0-.785-.002-1.57-.002-2.355 0-.253.002-.506.004-.758.004-.498-.305-.665-.65-1.02-.113-.117-.719-.022-.883-.023-.301-.001-.418.224-.629.435-.494.493-.436.584-.436 1.28 0 1.458-.002 2.918-.002 4.377zm74.718.01c-.129-.59-.02-1.41-.016-2.054.004-1.06.008-2.12.014-3.179 0-.278-.414-.542-.598-.73-.201-.208-.861-.253-1.129-.141-.197.085-.787.673-.869.874-.049.124.002.368.002.499.002 2.229.004 4.458.006 6.686.002.809.004 1.617.004 2.425 0 .206-.002.412-.006.617-.004.577.203.678.613 1.098.121.122.73.025.898.026.395.001.457-.151.744-.439.434-.433.334-.667.334-1.289.001-1.464.001-2.928.003-4.393zM312.416 42.9H326.075c.527 0 1.021.354 1.512.538.35.132.734.031 1.068.183.451.205.697.477 1.053.83.572.57.855 1.25 1.182 1.989.172.392.035.726.164 1.093.15.437.316.87.453 1.312.189.614.201 1.072.201 1.708v6.674c0 1.4.002 2.8.004 4.2.004 1.207.004 2.415.006 3.622 0 .512.121 1.164-.072 1.647-.154.378-.309.755-.471 1.128-.164.374.006.735-.121 1.086-.275.765-.508 1.702-.996 2.367-.822 1.115-2.68 1.883-4.037 1.883-3.111 0-6.223 0-9.334.001-4.725 0-9.447 0-14.172.001h-3.086c-.6 0-1.412-.466-2.018-.621-.877-.223-1.447-.667-2.07-1.278-.23-.227-.377-.751-.523-1.051-.166-.337-.42-.759-.477-1.126-.061-.399.027-.63-.115-1.022-.16-.437-.312-.868-.449-1.312-.25-.831-.068-1.893-.068-2.755 0-.359 0-.719-.002-1.078-.004-4.239-.008-8.479-.012-12.718-.002-.576.053-.791.293-1.344.111-.258.402-.651.391-.916-.014-.404-.113-.853.045-1.23.293-.7.592-1.581 1.139-2.114.576-.56 1.264-.993 1.977-1.367.541-.285.914-.33 1.504-.33h13.372zm.23 23.835c3.48 0 6.961-.001 10.441-.001.244 0 .9-.8.9-1.105v-1.865-7.036-6.222c0-.314.105-.749-.115-.99-.369-.401-.537-.81-1.074-.81h-20.303c-.055 0-.16-.021-.213 0-.129.052-.863.76-.863.881.004 3.854.004 7.709.008 11.563 0 1.264.002 2.528.002 3.792.002.646-.109.965.348 1.428.41.417.723.365 1.271.365h9.598zM49.695 73.161c-3.756.001-7.514.003-11.27.004-1.309 0-2.637-.757-3.828-1.257-.676-.283-1.004-1.305-1.305-1.897-.418-.823-.336-1.505-.312-2.413.008-.318-.348-.597-.352-.908-.002-.232-.148-1.105.008-1.255.275-.261.49-.473.824-.641.346-.174.848-.565 1.234-.602.42-.039.834-.035 1.258-.035.473 0 .791-.133 1.242-.3.322-.119.674-.326 1.014-.333.518-.012.771.437 1.129.793.205.203.053.934.049 1.211-.006.462-.033.675.311 1.006.305.293.773.202 1.186.202h17.709c.555 0 .869-.602 1.24-.979.469-.476.18-1.841.182-2.472v-1.309c.002-.264-.59-.669-.77-.85-.268-.271-.484-.192-.867-.192-4.367 0-8.734 0-13.102.001h-5.033c-.5 0-.902-.191-1.381-.359-.734-.256-1.473-.483-2.199-.762-.371-.143-.531-.292-.818-.57-.291-.282-.793-.609-.984-.968-.203-.381-.375-.751-.537-1.15-.164-.399.018-.799-.059-1.209-.123-.641-.672-1.163-.672-1.831v-3.237c0-.665-.174-1.572.09-2.197.164-.39.33-.779.496-1.167.162-.376.068-.826.057-1.229-.02-.759 1.092-1.54 1.541-1.985.543-.54 1.254-.845 1.92-1.226.686-.392 2.068-.144 2.822-.144h6.363c4.473 0 8.945-.001 13.416-.002h1.311c.471 0 1.092.418 1.52.629.844.416 1.373.978 2.041 1.637.643.632.639 1.29.609 2.145-.012.288.309.55.311.854.002.553.006 1.106.008 1.659.004.483-1.434.799-1.908.994-.371.152-.74.305-1.111.459-.34.141-.777-.015-1.152.13-.414.161-2.189.756-2.373.295-.184-.46-.207-.692-.197-1.187.01-.469.135-.842-.195-1.179-.479-.488-.502-.628-1.117-.628H42.46c-.158 0-.863-.107-.982.017-.145.15-.807.652-.805.844v1.163c0 .593 0 1.186.002 1.778 0 .27-.104.778 0 1.032.141.349.729.946 1.139.946h1.717c4.645 0 9.289 0 13.936.001h3.711c.76 0 1.301.283 1.986.601.531.247 1.785.459 2.029 1.067.305.764.627 1.519.943 2.277.275.657.326.954.326 1.648v6.897c0 .463.143 1.172-.041 1.61-.332.789-.629 1.591-.938 2.39-.336.875-1.039 1.17-1.855 1.51-.713.296-1.459.663-2.23.672-3.736.04-7.477 0-11.213 0-.165.001-.328.001-.49.001zM200.338 57.974V46.37v-2.291c0-.478.01-.955.557-1.176.197-.08.738-.002.965-.002h22.046c.41 0 .613.115.977.316.506.282.695.322 1.271.324.807.002 1.467.417 2.221.692.742.271 1.658.505 2.303.988.334.249.619.617.912.91.34.339.57.375.957.627.678.441 1.246 1.204 1.617 1.906.17.32.535.5.742.792.279.393.451.919.662 1.352.332.68.619 1.304.869 2.016.209.598.619 1.339.621 1.98.002 1.048.004 2.097.006 3.145.002.945.002 1.889.004 2.833.002.522-.539 1.314-.721 1.816-.299.832-.531 1.678-.834 2.507-.207.563-.424 1.345-.852 1.773-1.301 1.302-2.586 2.619-3.91 3.897-.525.508-1.496 1.057-2.227 1.094-.762.038-1.398.636-2.176.64-.418.002-.922-.076-1.33.007-.377.077-.771.319-1.131.473-.408.174-.762.17-1.191.17h-18.791c-.756 0-2.137.312-2.705-.26-.453-.457-.855-.648-.855-1.273 0-.786 0-1.573.002-2.359v-7.183c-.001-1.344.12-2.785-.009-4.11zm7.724-.267c.078 1.824.004 3.688.004 5.521v2.442c0 .216.459.525.602.669.314.318.348.396.791.396h10.609c.797 0 1.662.108 2.432-.123.785-.236 1.549-.55 2.312-.852.717-.285 1.275-.628 1.816-1.164.604-.6 1.439-1.172 1.748-1.98.289-.755.783-1.599.951-2.38.17-.787.002-1.794.002-2.597 0-.561.002-1.122.002-1.684 0-.224.07-.578-.014-.792-.309-.799-.59-1.605-.832-2.428-.094-.318-.512-.447-.664-.731-.205-.385-.412-.759-.574-1.165-.055-.141-.844-.431-.98-.503-.395-.208-.807-.365-1.221-.534-.717-.292-1.463-.533-2.188-.814-.518-.201-.814-.288-1.344-.287-4.1.001-8.197.002-12.295.003-.086 0-.246-.032-.326 0-.127.049-.83.737-.83.855v2.201c-.001 1.984-.001 3.965-.001 5.947zM173.965 56.12c0 3.803.002 7.604.004 11.407 0 .547.016.875-.191 1.378-.307.749-.666 1.472-1.021 2.198-.119.244-.475.752-.74.781-.418.046-.686.441-1.062.602-.625.269-1.262.674-1.947.674-7.676.001-15.354.002-23.029.003h-1.105c-.543 0-1.258-.435-1.785-.616-.377-.128-.74-.349-1.1-.521-.293-.14-.857-.285-.994-.628-.309-.768-.604-1.542-.922-2.306-.398-.958-.238-2.104-.238-3.146v-5.765V46.44v-1.524c0-.452-.158-1.107 0-1.503.285-.707 1.182-.509 1.75-.509 1.201-.001 2.404-.002 3.605-.003.438 0 1.488-.181 1.775.334.24.432.602 1.349.602 1.841-.002 1.301-.002 2.601-.002 3.901-.002 4.641-.004 9.283-.006 13.924 0 .566 0 1.132-.002 1.699 0 .359-.186 1.221.012 1.425.305.315.514.706.963.708.156.001.312.002.469.002h1.873c4.398.001 8.797.001 13.197.002.354 0 .695.098.951-.156.322-.319 1.221-.88 1.221-1.362 0-1.469-.002-2.938-.002-4.407-.002-4.582-.004-9.163-.006-13.743-.002-.922-.217-2.317.139-3.142.24-.562.967-1.033 1.596-1.032 1.08.001 2.16.003 3.24.004.621 0 1.666-.243 2.133.219.566.562.625.563.625 1.295v6.594c-.003 1.705-.003 3.409-.003 5.113zM102.539 42.9c3.76.001 7.518.002 11.275.004 1.678 0 3.355 0 5.033.001.107 0 .195.002.301.022.633.119.639.132.945.691.143.261.461.628.459.935-.006.565-.01 1.129-.014 1.693-.002.19.1.773-.043.918-.379.386-.756.773-1.133 1.159-.434.445-.539.376-1.164.376-2.26.001-4.521.001-6.781.001-1.018 0-2.037 0-3.055.001-.639 0-.797-.086-1.24.368-.379.387-.777.586-.775 1.12v1.785c.002 4.671.002 9.342.004 14.014v4.628c0 .505.008 1.011.012 1.516.004.649-.643 1.022-1.217 1.023-1.156 0-2.312.002-3.467.003-.775 0-1.479.102-2.186-.214-1.182-.527-.865-2.113-.863-3.174.002-4.224.004-8.447.006-12.671.002-2.042.004-4.083.004-6.125 0-.445 0-.89.002-1.335 0-.232-.742-.936-.98-.936-3.764-.001-7.525-.002-11.287-.003-.232 0-1.277-1.056-1.277-1.286 0-1.035 0-2.07-.002-3.105 0-.216-.078-.688.004-.866.205-.45.656-.544 1.072-.545h14.443c.641.002 1.283.002 1.924.002zM260.885 57.934V46.361v-1.596c0-.344-.006-.688-.01-1.032-.002-.26.258-.829.58-.829 1.91-.002 3.818-.003 5.729-.005.889-.001.98.774 1.205 1.47.125.386.229.656.229 1.043V49.6c-.002 4.852-.004 9.703-.006 14.554 0 1.833 0 3.667-.002 5.501v1.243c0 .588-.275 1.004-.535 1.538-.238.488-.234.549-.754.704-.211.062-.496.011-.713.011-1.174.001-2.346.001-3.52.002h-1.283c-.348 0-.4-.173-.643-.447-.369-.417-.303-.582-.303-1.14 0-2.651 0-5.302.002-7.953v-3.977c0-.471-.136-1.287.024-1.702zM137.287 118.893c.963-.001 1.926-.002 2.891-.004.709-.001 1.373.106 1.906.633.492.487.986.978.986 1.715v5.88c-.002.828-.945 1.136-1.525 1.458-.559.31-.967.608-1.619.608-1.115 0-2.23 0-3.346-.001h-2.404c-.389 0-1.6-.506-1.85-.76-.146-.147-.867-.691-.867-.886v-.662c0-1.142.002-2.285.002-3.426 0-.905 0-1.811.002-2.717 0-.179-.078-.564.025-.673.352-.373.574-.554 1.033-.776 1.44-.698 3.206-.389 4.766-.389zm-.086 7.725h1.211c.205 0 1.082.131 1.229-.018.152-.154.848-.673.848-.871v-1.252c0-.805.266-1.874-.309-2.48-.193-.205-.365-.538-.662-.538h-4.594c-.26 0-.521.431-.691.604-.268.274-.207.422-.207.814v1.739c0 .307-.107.846 0 1.137.07.187.631.787.814.863.346.142 1.041.001 1.41.002.318-.001.635 0 .951 0zM228.057 118.893c.965 0 1.928-.001 2.893-.002.805-.001 1.395.244 2.129.58.855.391.77 1.185.766 1.95-.004.813-.018 1.627-.012 2.44.008 1.029.016 2.058.023 3.087.008.917-.781 1.221-1.455 1.589-.535.293-.971.646-1.6.646h-5.872c-.576 0-1.34-.671-1.799-.987-.352-.244-.752-.382-.84-.809-.045-.217-.055-.388-.055-.609 0-1.016-.002-2.032-.002-3.047 0-1.016 0-2.032-.002-3.047 0-.602.518-1.076 1.037-1.338.719-.363 1.189-.454 1.977-.453.939-.001 1.874 0 2.812 0zm.052 2.565c-.4 0-.799.001-1.197.002-.35 0-1.025-.137-1.352.001-.117.05-.748.638-.748.75v2.967c0 .309-.086.605.137.827.17.171.443.609.701.609h4.601c.549 0 1.027-.577 1.027-1.103v-3.179c0-.292-.416-.542-.611-.735-.254-.253-.701-.137-1.047-.137-.503-.002-1.007-.002-1.511-.002zM70.961 118.893c.963-.001 1.928-.002 2.891-.004.717-.001 1.383.109 1.92.638.504.497.979.955.979 1.705v5.88c0 .836-.93 1.136-1.516 1.462-.596.33-.947.606-1.639.606h-3.402c-1.414 0-3.117.225-4.195-.918-.143-.151-.855-.708-.855-.91v-.668-3.28c-.002-.91-.002-1.821-.002-2.73 0-.214-.062-.462.088-.621.359-.38.6-.567 1.064-.805 1.366-.698 3.181-.355 4.667-.355zm-.043 2.564c-.404 0-.809.001-1.211.001-.209 0-1.078-.132-1.23.02-.154.153-.76.583-.76.792v3.091c0 .462-.002.478.336.814.23.231.33.44.65.44h4.601c.268 0 .557-.455.736-.632.23-.229.143-.534.143-.855v-1.767c0-.302.107-.835 0-1.123-.047-.122-.676-.777-.793-.777-.484 0-.969-.001-1.453-.001-.339-.002-.679-.002-1.019-.003zM190.041 124.014c-.002-.95-.004-1.9-.004-2.851-.002-.589-.039-1.527.613-1.78.838-.325 1.324-.501 2.201-.5 1.158.001 2.316.003 3.477.005.709.001 1.314.328 1.975.574.656.245 1.574.527 2.066 1.029.523.535 1.281 1.076 1.279 1.898v2.883c0 .528-.727 1.292-1.004 1.722-.115.179-.377.807-.58.885-.438.169-.877.338-1.316.507-.352.136-.539.158-.922.155-.375-.003-.703.165-1.055.291-.652.234-1.105.339-1.799.341-1.025.002-2.051.005-3.076.007-.498.001-1.297-.115-1.525-.647-.594-1.386-.357-3.026-.33-4.519zm5.467-2.557c-.367.009-.746.004-1.117.005-.299 0-.977-.139-1.203.083-.229.227-.568.41-.568.746v1.592c-.002.546-.002 1.092-.002 1.638 0 .463.031.471.379.817.557.553 1.756.268 2.502.266.59 0 1.74.216 2.234-.272.531-.527 1.334-1.062 1.34-1.888.006-.812.211-1.816-.432-2.454-.662-.656-1.477-.537-2.338-.536-.264.003-.53.003-.795.003zM110.227 124.017v4.125c0 .328-.361.539-.58.763-.363.373-.361.252-.822.001-.303-.165-1.014-.373-1.094-.729-.203-.907-.074-1.887-.059-2.812.012-.676-.115-1.623-.891-.813-.543.567-.74 1.397-1.266 1.937-.398.41-1.188 1.706-1.826 1.053-.615-.629-1.41-1.234-1.812-2.02-.379-.737-.74-1.237-1.307-1.838-.713-.758-.664.901-.662 1.165.008.872.014 1.744.021 2.617.002.229.088.64.008.857-.109.292-.607.629-.826.858-.408-.398-1.129-.795-1.129-1.395v-2.936c0-1.811-.041-3.627.018-5.437.018-.498.416-.413.736-.365.359.054 1.021.011 1.295.271.621.597.885 1.395 1.408 2.065.537.688 1.285 1.276 1.906 1.892.211.211.303.609.445.874.121.227.119.434.373.326.273-.114.303-.133.443-.384.221-.396.443-1.01.771-1.337.443-.44.887-.881 1.328-1.321.27-.268.475-.953.658-1.294.123-.229.748-.922 1-.952.189-.022 1.596-.271 1.631-.164.148.452.23.744.23 1.207.003 1.262.003 2.524.003 3.786zM266.682 124.03c.002.95.002 1.9.004 2.85 0 .817-.117 1.432-.711 2.051-.111.117-.994.094-1.152.028-.328-.135-.58-.596-.928-.778-.77-.402-1.234-.748-1.85-1.365-.555-.556-1.186-1.482-1.893-1.843-.393-.202-.787-.403-1.182-.605-.279-.144-.506-.814-.836-.704-.451.15-.521.143-.514.608.008.532.018 1.063.025 1.595.016.975.105 1.704-.273 2.593-.164.387-.461.539-.844.542-.678.005-.717-.048-1.193-.534-.387-.394-.256-1.347-.256-1.842.002-1.902.023-3.805-.002-5.707-.006-.345.268-.734.406-1.042.201-.456.174-.791.682-.772.371.013.684-.07.947.194.41.412.818.823 1.229 1.235.209.209.414.497.682.631.387.193.871.367 1.219.622.725.531 1.342 1.353 1.973 1.99.402.406.557.634 1.105.751.451.096.43.154.625-.267.096-.205.17-.325.168-.542-.006-.778-.012-1.555-.02-2.333-.002-.257-.184-1.419.002-1.608.256-.26.51-.519.766-.778.193-.196.301-.023.533.107.352.199.703.397 1.055.595.207.117.207.432.229.659.111 1.202.002 2.461.004 3.669zM287.26 124.023c-.002-.95-.002-1.9-.004-2.851 0-.803.098-1.396.689-2 .164-.167.924-.037 1.164-.037.305 0 .791.4 1.082.547.766.387 1.377 1.244 1.979 1.844.615.614 1.018.969 1.791 1.341.754.362 1.109 1.246 1.863 1.574.326.142.494-.113.488-.486-.008-.494-.016-.988-.023-1.482-.014-.861-.17-1.611.258-2.357.148-.259.389-.965.645-1.122.451-.278.723.035.947.344.146.198.74.767.74 1.012v.727c.004 2.138.006 4.277.01 6.416 0 .431-.639 1.604-1.008 1.503-.645-.175-1.365-.566-1.842-1.038-.6-.593-1.223-1.482-1.99-1.848-.736-.351-1.209-.702-1.775-1.275-.564-.57-1.129-1.139-1.691-1.709-.469-.473-.764-.001-.76.486.01 1.522.021 3.044.033 4.567.004.397.012.436-.27.716-.332.333-.475.274-.955.272-.746-.004-1.078-.741-1.33-1.31-.219-.497-.045-1.361-.043-1.892 0-.648-.004-1.298.002-1.942zM32.941 123.682c-.002-.953-.002-1.906-.004-2.86 0-.746.252-1.394.959-1.717.307-.14.736-.351 1.09-.202.488.208.545.662.545 1.098-.002.758-.004 1.517-.006 2.276-.002 1.089-.006 2.177-.008 3.265-.002.462.582 1.072 1.043 1.072h3.35c.188 0 .553.082.693-.061.156-.162.742-.579.74-.804l-.018-5.796c-.002-.226-.059-.49.104-.657.449-.465.432-.373 1.021-.123.438.186.877.372 1.316.558.121.052.15.578.15.751.002 2.066.006 4.132.008 6.197 0 .679-.219 1.167-.818 1.499-.506.279-1.336 1.004-1.928 1.004h-3.576c-1.016 0-1.811.097-2.729-.333-.514-.24-.73-.421-1.096-.843-.197-.228-.838-.732-.838-1.046.004-1.089.041-2.194.002-3.278zM330.129 129.166c-.84-.322-1.488-.557-1.945-1.386-.266-.486-.391-.699-.84-1.011-.297-.208-.559-.149-.926-.149-.912-.001-1.824-.005-2.734-.003-.428 0-.834-.058-1.225.115-.518.228-.619.56-.904 1.056-.209.362-1.381 1.565-1.641 1.285-.35-.375-.699-.75-1.049-1.126-.17-.183.305-.642.389-.815.381-.803.752-1.603 1.189-2.376.18-.318.527-.487.721-.786.199-.305.199-.726.387-1.042.41-.694.783-1.393 1.135-2.118.15-.312.262-.591.506-.834.172-.169.592-.767.838-.77.469-.005.936-.01 1.402-.014.516-.005.469.023.73.482.191.339.381.678.582 1.012.182.301.594.461.754.771.344.657.666 1.323 1.018 1.976.199.369.35.667.645.959.346.342.396.554.615.975.291.558.918 1.373.998 1.992.066.492.131.985.195 1.477.041.319-.653.326-.84.33zm-5.553-4.473c.234-.05.559.046.801-.083.512-.274.494-.235.404-.809-.055-.348-.455-1.633-.979-1.555-.18.026-.576.694-.697.84-.195.235-.305.527-.439.8-.16.326-.295.498.037.71.248.159.586.093.873.097zM166.508 133.091c-.936 0-1.869 0-2.803-.001h-1.232c-.166 0-.701-.521-.758-.676-.273-.742.396-1.292 1.043-1.292H169.026c.482 0 1.361-.168 1.834.01.174.065.684.542.5.742-.361.39-.721.779-1.08 1.169-.123.135-.547.048-.715.048h-3.057z"/>
  <path fill="#fff" fill-rule="evenodd" clip-rule="evenodd" d="M120.896 92.493c.945.001 1.891.001 2.836.001.648 0 1.303.633 1.305 1.282.002.723.119 1.8-.688 2.109-.789.302-1.264.482-2.086.481l-3.516-.006c-.307 0-.613-.001-.92-.002-.535 0-.605-.032-.984-.407-.273-.27-.186-.537-.188-.923v-1.764c0-.337.428-.537.672-.745.152-.132.797-.021.986-.021.861-.001 1.728.01 2.583-.005zM307.264 92.493c.943.001 1.889.001 2.832.002.285 0 .449.303.641.5.264.27.875.687 1.012 1.039.125.325-.141.73-.266 1.001-.148.32-.311 1.05-.662 1.17-.68.229-1.396.142-2.111.143-1.201 0-2.402 0-3.604.001h-.975c-.25 0-.574-.483-.746-.653-.133-.128-.021-.863-.021-1.04v-1.455c0-.082.652-.704.738-.704.449 0 .898 0 1.348-.001.603 0 1.212.004 1.814-.003zM92.889 92.494c.943 0 1.889.001 2.832.001.283 0 .443.293.635.488.26.262.865.669 1 1.014.121.307-.127.75-.23 1.018-.139.355-.207.924-.58 1.072-.795.316-1.41.274-2.275.273-1.008-.001-2.018-.001-3.025-.002-.326 0-.654-.002-.98-.004-.609-.003-.641-.011-1.068-.453-.531-.547-.238-1.83-.236-2.562 0-.333.393-.548.621-.769.188-.182.713-.07.957-.071.78-.001 1.569.008 2.349-.005zM39.395 92.494c.941 0 1.883.001 2.824.001.357 0 .49.275.736.534.381.396.311.578.312 1.143.002.765-.16 1.651-.93 2.004-.652.298-1.428.166-2.139.167-1.148.001-2.297.003-3.445.005-.52 0-1.23-.214-1.232-.875 0-.825-.291-1.968.328-2.562.295-.281.352-.414.738-.414.59 0 1.18-.001 1.77-.002.346 0 .692-.001 1.038-.001zM65.072 98.277c-.527 0-1.57.226-1.957-.157-.195-.194-.615-.42-.506-.705.162-.417.324-.833.484-1.249.092-.234.436-.371.582-.576.213-.295.328-.732.477-1.063.156-.348.686-1.668 1.15-1.226.447.425.854.934 1.105 1.515.131.3.227.695.416.96.156.219.654.44.674.714.029.435.061.87.09 1.305.025.354-.229.411-.59.479-.597.117-1.319.012-1.925.003z"/>
  <path fill="#fff" d="M339.566 64.774c.453-1.284.85-2.592 1.373-3.847 1.727-4.154 5.066-6.857 8.746-9.057 5.197-3.106 10.652-5.777 15.838-8.899 4.533-2.729 9.043-5.443 13.955-7.456.705-.288 1.246-1.229 1.627-1.986.477-.947.984-1.379 2.09-1.072 2.016.557 3.578-.147 4.914-1.757 1.934-2.328 4.547-3.691 7.348-4.72.225-.083.553-.077.672-.234 2.123-2.786 5.568-3.167 8.426-4.584 2.625-1.302 5.355-2.421 8.115-3.412 3.723-1.335 7.459-2.721 11.297-3.607 2.711-.627 5.658-.889 8.402-.542 3.51.445 6.037 2.78 7.535 6.031.549 1.194.805 2.522 1.348 3.72 2.801 6.19.338 11.443-2.842 16.599-.648 1.049-1.279 2.14-1.711 3.29-2.123 5.658-5.043 10.884-8.367 15.911-1.021 1.547-1.936 3.179-2.781 4.831-2.025 3.953-4.008 7.93-5.957 11.922-2.105 4.312-4.145 8.656-6.229 12.98-.338.701-.824 1.337-1.107 2.056-.691 1.76-1.291 3.556-1.953 5.328-.713 1.907-1.457 3.805-2.184 5.707-.25.65-.496 1.3-.885 2.323 2.352-1.536 4.133-2.947 4.201-5.613.006-.231.016-.528.148-.682 1.711-1.962 3.438-3.91 5.174-5.849 1.756-1.96 3.498-3.937 5.311-5.846.865-.91 1.801-1.795 2.842-2.484 2.369-1.567 3.676-3.882 4.871-6.328.436-.889.881-1.881 1.6-2.502 4.283-3.688 7.346-8.397 10.896-12.7 3.248-3.936 6.555-7.824 9.906-11.672.367-.419 1.436-.241 1.771-.664.984-1.233 2.014-2.535 2.549-3.987.525-1.431.93-2.746 2.188-3.779 2.312-1.9 4.492-3.963 6.908-6.124.473.182 1.242.479 2.213.854.232-.91.629-1.764.637-2.621.039-3.291 2.061-4.942 4.66-6.436 1.615-.928 2.93-2.415 4.301-3.729 1.518-1.454 2.582-3.279 5.049-3.716 1.27-.226 2.426-1.688 3.422-2.786 4.174-4.608 9.557-7.136 15.447-8.256 2.07-.394 4.799.685 6.697 1.912 2.098 1.357 3.617 3.63 5.318 5.564.365.416.66 1.108.607 1.636-.191 1.968.314 3.562 2.287 4.635-2.234 2.917-1.533 6.324-2.24 9.437-1.012 4.444-2.01 8.914-3.453 13.225-.582 1.743-2.342 3.086-3.533 4.635-.367.477-.926 1.055-.891 1.552.195 2.846-.621 5.458-1.518 8.089-.408 1.203-.553 2.497-.828 3.804 1.764.306 2.838-.254 3.156-1.559.865-3.536 3.133-5.949 5.93-8.026.361-.27.549-.774.83-1.159 1.801-2.468 3.607-4.935 5.416-7.4.07-.095.154-.201.258-.251 3.676-1.803 4.438-6.167 7.486-8.524.227-.176.336-.496.537-.715 2.961-3.219 5.92-6.441 8.904-9.637.527-.566 1.199-.994 1.764-1.529 2.076-1.962 4.125-3.952 6.197-5.915 3.467-3.284 6.68-6.92 10.498-9.729 3.791-2.787 8.131-4.868 12.354-7.011 4.33-2.199 8.867-3.479 13.658-1.25 3.227 1.501 5.127 4.191 5.789 7.507 1.115 5.579 1.172 11.189-.203 16.811-.881 3.598-1.285 7.311-1.938 10.967-.092.512-.344 1.008-.588 1.477-2.24 4.303-4.486 8.602-6.754 12.891-.248.469-.695.837-.926 1.312-.42.862-.725 1.778-1.119 2.654-.67 1.494-1.266 3.036-2.09 4.441-.75 1.282-1.891 2.335-2.637 3.619-2.344 4.037-4.641 8.105-6.836 12.225-.812 1.525-1.15 3.307-1.963 4.833-2.172 4.067-4.541 8.029-6.713 12.097-.859 1.612-1.611 3.345-2.012 5.114-.256 1.12-.643 1.739-1.672 1.991-1.174.285-1.24 1.106-.791 1.921.693 1.256.141 2.243-.318 3.378-.803 1.99-1.438 4.05-2.109 6.091-.615 1.877-1.035 3.833-1.807 5.642-2.836 6.65-3.994 13.311-.857 20.221 1.615 3.558 2.408 7.257 1.637 11.228-.4 2.062-1.307 3.257-3.375 3.904-3.375 1.055-6.279.757-9.033-1.654-1.977-1.73-4.559-2.879-4.492-6.145-2.867.789-3.982-1.307-5.047-2.975-2.211-3.458-2.914-7.325-3.096-11.475-.26-5.901.527-11.639 1.605-17.365.451-2.396 1.416-4.693 2.139-7.038 1.209-3.908 2.574-7.721 5.059-11.069.871-1.175 1.162-2.771 1.971-4.008.994-1.519 2.254-2.864 3.475-4.378-1.486-2.216-.848-4.324 1.947-5.142 1.312-.383 1.848-1.257 1.539-2.423-.562-2.112.42-3.582 1.691-5.012.199-.222.424-.447.541-.712 1.43-3.286 2.832-6.582 4.258-9.869 1.475-3.397 2.984-6.778 4.434-10.186.32-.755.492-1.58.672-2.387.254-1.146.402-2.316.684-3.454.314-1.278 1.121-1.801 2.508-1.702.555.04 1.381-.408 1.689-.886.877-1.356 1.48-2.885 2.324-4.266.723-1.185 1.49-2.408 2.488-3.344 1.211-1.133 2.404-1.722 1.799-4.025-.395-1.501 1.055-3.539 1.811-5.279.928-2.135 2.027-4.196 2.975-6.324.182-.408.139-1.344-.031-1.405-.553-.201-1.336-.337-1.799-.081-.984.549-1.848 1.33-2.715 2.069-1.389 1.187-2.949 2.251-4.072 3.659-3.066 3.853-7.773 5.564-11.215 8.91-3.408 3.313-6.977 6.466-10.297 9.861-.803.823-1.469 1.281-2.539 1.272-1.09-.009-1.387.703-1.512 1.618-.246 1.814-.527 3.825-2.395 4.56-2.814 1.109-4.018 3.555-5.594 5.752-.863 1.203-1.918 2.133-3.578 2.057-1.264-.058-1.799.647-1.414 1.849.566 1.766-.037 3.083-1.258 4.359-3.488 3.64-6.957 7.302-10.328 11.05-1.111 1.238-1.869 2.789-2.852 4.15-3.77 5.214-7.627 10.365-11.32 15.631-1.746 2.491-3.092 5.261-4.826 7.761-.93 1.34-2.309 2.365-3.451 3.561-.367.383-.867.839-.91 1.297-.186 2.11-1.68 3.275-3.109 4.437-2.738 2.224-5.33 4.668-8.898 5.635-3.232.875-4.354.606-6.459-1.899-2.43-2.891-3.449-6.073-2.541-9.878.361-1.513.117-3.167.178-4.756.014-.354.107-.719.234-1.052 2.9-7.564 5.709-15.167 8.781-22.661.963-2.347 2.691-4.371 3.988-6.59 1.426-2.436 2.779-4.915 4.121-7.398 1.654-3.06 2.949-6.243 4.119-9.544 1.453-4.093 3.828-7.855 5.77-11.779.664-1.343 1.256-2.727 1.807-4.122.418-1.066-.018-1.801-1.062-2.265-1.859-.822-3.488-.331-4.77 1.249-.654.808-1.545 1.482-2.449 2.014-1.602.944-3.346 1.652-4.938 2.612-1.26.759-2.893 1.158-3.184 3.068-.076.501-.924.888-1.428 1.318-6.422 5.513-12.842 11.028-19.271 16.531-1.869 1.602-3.85 3.085-5.633 4.776-1.551 1.471-3.023 3.062-4.295 4.776-1.152 1.554-2.363 2.797-4.336 3.207-.566.118-1.338.571-1.512 1.051-2.008 5.559-6.363 9.419-9.969 13.795-2.664 3.232-5.705 6.15-8.514 9.266-.428.474-.83 1.339-.691 1.881.387 1.487-.436 2.302-1.225 3.318-1.303 1.68-2.369 3.542-3.646 5.244-.457.609-1.172 1.205-1.883 1.412-2.686.782-3.926 2.396-3.797 5.25.09 1.972-.613 3.714-2.17 5.135-1.051.959-1.779 2.264-2.734 3.341-.623.7-1.391 1.27-2.094 1.896-.264.237-.625.417-.791.709-1.971 3.484-3.826 7.038-5.887 10.468-2.875 4.787-5.816 9.54-8.885 14.206-3.176 4.827-7.451 8.286-13.188 9.695h-2.889c-7.406-4.884-7.795-10.565-5.465-17.429 1.578-4.643 2.752-9.422 4.123-14.135.113-.387.289-.8.555-1.089 1.381-1.498 2.854-2.912 4.18-4.453.588-.683 1.02-1.557 1.324-2.415.684-1.909.92-4.056 1.939-5.741 1.068-1.762 2.311-3.269 2.133-5.506-.041-.515.543-1.217 1.02-1.611 1.465-1.204 1.9-2.743 2.088-4.562.15-1.455.67-2.91 1.238-4.276 1.078-2.59 2.27-5.136 3.484-7.666 1.529-3.188 2.855-6.521 4.777-9.462 2.002-3.063 3.479-6.281 4.662-9.696.35-1.01.639-2.306 1.398-2.854 1.617-1.165 2.014-2.892 2.777-4.479.627-1.296 1.299-2.57 1.98-3.839 1.414-2.63 2.965-5.195 4.234-7.894.803-1.706 1.059-3.663 1.805-5.402 1.432-3.352 3.16-6.579 4.547-9.949 1.527-3.713 2.871-7.507 4.174-11.308.643-1.875-.77-3.491-2.646-2.951-2.504.72-4.996 1.605-7.346 2.729-3.186 1.525-6.172 3.464-9.352 5.007-3.822 1.854-7.748 3.497-11.643 5.192-1.494.649-3.033 1.192-4.736 1.854-.713 1.274-.914 3.411-3.438 3.541-.342.018-.668.456-.986.714-4.016 3.229-7.812 6.793-12.109 9.587-3.35 2.176-6.34 4.66-9.223 7.344-.418.391-.967.946-.969 1.429-.02 2.915-2.025 4.635-3.74 6.533-2.348 2.593-4.818 3.333-8.402 1.907-2.842-1.132-4.037-2.784-4.502-5.471-.068-.396-.254-.772-.385-1.158.003-.121.003-.24.003-.362z"/>
</svg>
